<svg width="340" height="387" viewBox="0 0 340 387" fill="none" xmlns="http://www.w3.org/2000/svg">
<path d="M271.931 242.049H125.01V249.134H271.931V242.049Z" fill="white" stroke="#4D3566" stroke-width="5" stroke-linejoin="round"/>
<path d="M291.209 226.838C291.209 161.757 332 125.944 332 125.944H210.747C210.747 125.944 169.956 161.757 169.956 226.838H291.209Z" fill="white" stroke="#5D5466" stroke-width="6" stroke-miterlimit="10"/>
<path d="M126.202 226.838H291.209C291.209 230.873 289.186 234.743 285.585 237.596C281.984 240.449 277.1 242.052 272.008 242.052H107C107 238.017 109.023 234.147 112.624 231.294C116.225 228.441 121.109 226.838 126.202 226.838Z" fill="white" stroke="#5D5466" stroke-width="6" stroke-miterlimit="10"/>
<path d="M270.413 384.086C269.933 384.087 269.467 383.954 269.096 383.711C268.725 383.469 268.472 383.131 268.381 382.757L236.097 249.136H254.603L272.471 382.272C272.502 382.501 272.472 382.732 272.383 382.951C272.294 383.17 272.147 383.372 271.953 383.543C271.759 383.714 271.522 383.851 271.256 383.945C270.991 384.038 270.704 384.086 270.413 384.086Z" fill="white" stroke="#4D3566" stroke-width="5" stroke-linejoin="round"/>
<path d="M126.832 384.086C127.313 384.087 127.779 383.954 128.15 383.711C128.521 383.469 128.774 383.131 128.865 382.757L161.149 249.136H142.646L124.774 382.272C124.743 382.501 124.774 382.732 124.863 382.951C124.952 383.17 125.099 383.372 125.293 383.543C125.487 383.714 125.724 383.851 125.989 383.945C126.255 384.038 126.542 384.086 126.832 384.086Z" fill="white" stroke="#4D3566" stroke-width="5" stroke-linejoin="round"/>
<path d="M90.86 166.677C140.494 176.15 165.362 165.477 169.869 158.967C169.869 158.967 167.388 146.744 169.221 127.796C171.054 108.847 167.199 66.409 167.199 66.409C156.261 69.7417 140.255 75.0752 135.491 86.1842C130.727 97.2932 129.977 127.73 129.694 140.742C129.694 140.742 104.229 147.663 92.82 152.388C91.5475 152.913 90.5142 153.741 89.8646 154.755C89.215 155.769 88.9816 156.918 89.1971 158.043L90.86 166.677Z" fill="#A292B3"/>
<path d="M139.846 140.742C139.846 140.742 134.901 139.186 125.072 140.905" stroke="white" stroke-width="5" stroke-linejoin="round"/>
<path d="M93.6461 159.742C93.9166 161.062 93.7176 162.415 93.0712 163.65C92.4248 164.886 91.3568 165.954 89.9869 166.735L89.4181 167.053C85.5306 169.18 78.0746 170.9 76.3066 170.805C74.5386 170.71 63.6698 169.117 63.6698 169.117C63.6698 169.117 63.2821 167.943 64.8726 166.396C66.463 164.849 78.1145 166.077 73.8539 162.681C71.9591 161.171 62.5213 164.579 58.4165 168.356C54.3117 172.134 52.3625 169.14 52.3625 169.14C52.3625 169.14 56.2934 162.142 57.6955 160.876C59.0976 159.61 68.4738 154.233 74.8103 153.412C77.8319 153.022 82.078 153.243 86.2951 153.823C88.1449 154.082 89.8469 154.791 91.1644 155.852C92.4818 156.912 93.3493 158.272 93.6461 159.742Z" fill="#D0BCE6"/>
<path d="M120.796 371.691C124.803 370.974 130.343 369.435 133.43 366.194L135.183 358.699C135.183 358.699 123.662 359.738 113.138 358.94L115.177 368.749C115.29 369.24 115.526 369.707 115.873 370.123C116.22 370.539 116.669 370.896 117.194 371.171C117.719 371.446 118.309 371.633 118.928 371.723C119.547 371.812 120.183 371.802 120.796 371.691Z" fill="#D0BCE6"/>
<path d="M73.9082 380.869C73.9698 381.425 75.2379 384.083 75.2379 384.083L140.042 382.344V379.473C140.042 374.668 137.98 370.52 136.89 368.717C135.209 365.936 132.875 366.631 132.875 366.631C132.875 366.631 126.539 371.539 119.431 371.539C118.061 371.539 117.079 370.965 116.376 370.127C115.957 369.608 115.631 369.046 115.406 368.456C115.11 367.688 114.902 366.9 114.782 366.102C114.729 365.765 114.574 365.443 114.33 365.163C114.086 364.884 113.76 364.655 113.381 364.496C113.001 364.338 112.579 364.254 112.15 364.252C111.721 364.251 111.298 364.331 110.917 364.486C108.127 365.635 104.74 368.166 95.6677 372.047C95.2148 372.243 94.7438 372.441 94.2584 372.644C83.2265 377.243 74.0314 375.532 73.9082 380.869Z" fill="#A292B3"/>
<path d="M81.2012 386.624C79.3246 386.624 77.0348 385.952 75.8067 384.861C75.0427 384.152 74.4937 383.314 74.2017 382.411C73.9097 381.508 73.8824 380.564 74.122 379.651H74.1727C74.4328 380.737 75.1553 381.72 76.2196 382.435C77.2838 383.149 78.6254 383.553 80.0202 383.578L136.201 382.275C137.944 382.275 139.437 381.319 140.045 379.979V382.97C140.045 384.993 138.194 386.633 135.908 386.633L81.2012 386.624Z" fill="#5F3F79"/>
<path d="M93.2294 373.063C96.5413 373.538 99.6169 374.743 102.103 376.541C104.589 378.339 106.384 380.655 107.283 383.225L109.87 383.153C109.05 380.505 107.399 378.064 105.07 376.057C102.741 374.05 99.8095 372.541 96.5481 371.671L95.6713 372.047C95.2184 372.243 94.7474 372.441 94.262 372.644C93.919 372.792 93.5748 372.931 93.2294 373.063Z" fill="#5F3F79"/>
<path d="M86.8204 375.033V375.3C90.1158 375.303 93.3387 376.066 96.095 377.497C98.8514 378.928 101.022 380.965 102.341 383.357L105.029 383.285C103.906 380.934 102.077 378.835 99.6993 377.17C97.322 375.505 94.4683 374.324 91.3854 373.729C89.8935 374.227 88.3698 374.662 86.8204 375.033Z" fill="#5F3F79"/>
<path d="M199.53 371.691C203.537 370.974 208.711 369.435 211.798 366.194L212.83 358.076C212.83 358.076 202.023 358.826 191.498 358.025L193.915 368.749C194.027 369.239 194.263 369.707 194.609 370.123C194.956 370.539 195.405 370.896 195.93 371.17C196.454 371.445 197.044 371.633 197.663 371.723C198.282 371.812 198.917 371.802 199.53 371.691Z" fill="#D0BCE6"/>
<path d="M156.309 380.869C156.37 381.425 157.638 384.084 157.638 384.084L218.779 382.344V379.473C218.779 374.668 216.718 370.52 215.631 368.717C213.946 365.936 211.617 366.051 211.617 366.051C211.617 366.051 205.276 371.539 198.168 371.539C196.799 371.539 195.817 370.965 195.118 370.127C194.697 369.609 194.37 369.046 194.147 368.456C193.85 367.688 193.641 366.9 193.524 366.102C193.47 365.765 193.314 365.443 193.07 365.163C192.825 364.884 192.499 364.655 192.12 364.497C191.74 364.338 191.318 364.254 190.889 364.252C190.459 364.251 190.036 364.331 189.654 364.486C186.865 365.635 187.14 368.166 178.061 372.047C177.608 372.243 177.137 372.441 176.651 372.644C165.623 377.243 156.428 375.532 156.309 380.869Z" fill="#A292B3"/>
<path d="M163.598 386.624C161.721 386.624 159.432 385.952 158.203 384.861C157.439 384.152 156.89 383.314 156.598 382.411C156.306 381.508 156.279 380.564 156.519 379.651H156.569C156.83 380.737 157.552 381.72 158.616 382.434C159.681 383.149 161.022 383.553 162.417 383.578L214.95 382.275C216.692 382.275 218.181 381.319 218.79 379.979V382.97C218.79 384.993 216.939 386.632 214.653 386.632L163.598 386.624Z" fill="#5F3F79"/>
<path d="M175.626 373.063C178.938 373.538 182.014 374.743 184.5 376.541C186.986 378.339 188.781 380.655 189.68 383.225L192.266 383.153C191.446 380.505 189.795 378.064 187.466 376.057C185.138 374.05 182.206 372.541 178.945 371.671L178.068 372.047C177.615 372.242 177.144 372.441 176.659 372.644C176.316 372.792 175.972 372.931 175.626 373.063Z" fill="#5F3F79"/>
<path d="M169.217 375.033V375.3C172.513 375.303 175.735 376.066 178.492 377.497C181.248 378.928 183.419 380.965 184.738 383.357L187.426 383.285C186.303 380.934 184.473 378.835 182.096 377.17C179.719 375.505 176.865 374.324 173.782 373.729C172.29 374.227 170.767 374.662 169.217 375.033Z" fill="#5F3F79"/>
<path d="M216.167 241.42C216.167 241.42 242.325 270.944 219.366 357.103C219.366 357.103 207.334 360.301 188.158 357.964C188.158 357.964 162.196 274.188 158.664 237.887C152.294 237.737 145.697 237.646 138.897 237.646C138.897 237.646 166.333 282.079 139.701 358.673C139.701 358.673 120.083 359.784 109.768 358.619C109.768 358.619 78.1072 233.386 80.1542 221.74C82.6033 207.723 138.332 189.825 173.387 187.302L251.846 186.917C251.846 186.917 271.957 202.992 263.562 225.799C257.266 242.91 216.167 241.42 216.167 241.42Z" fill="#5D5466"/>
<path d="M257.563 192.825C257.818 193.434 258.208 194.003 258.715 194.504C258.715 194.504 189.962 213.048 161.029 189.719C192.466 198.437 244.053 194.165 257.563 192.825Z" fill="#D0BCE6"/>
<path d="M228.543 51.31C232.115 53.6351 276.141 73.8524 282.449 76.631C288.756 79.4097 253.023 140.394 254.136 162.153C254.962 178.303 260.555 192.472 260.555 192.472C260.555 192.472 197.483 199.829 161.029 189.719C161.029 189.719 168.601 180.82 164.395 162.391C160.986 147.439 154.048 105.931 155.983 89.9619C156.685 84.1834 157.946 69.8537 167.214 66.409C181.235 61.1933 190.908 56.6492 190.908 56.6492L228.543 51.31Z" fill="#A292B3"/>
<path d="M164.391 163.253C160.982 148.3 154.247 118.699 159.279 98.6653" stroke="white" stroke-width="5" stroke-linejoin="round"/>
<path d="M282.449 76.7975C301.238 89.9073 303.027 144.077 291.144 153.949C267.87 173.279 197.618 173.061 197.618 173.061C197.618 173.061 190.267 172.22 194.473 158.668C194.473 158.668 246.556 137.828 251.603 137.952C251.603 137.952 250.763 99.2911 261.418 87.74C272.073 76.1889 280.239 75.256 282.449 76.7975Z" fill="#A292B3"/>
<path d="M256.016 168.474C228.438 174.029 197.617 173.354 197.617 173.354" stroke="white" stroke-width="5" stroke-linecap="round" stroke-linejoin="round"/>
<path d="M194.473 158.378C194.473 158.378 222.159 146.064 251.603 137.662C251.603 137.662 252.828 108.038 255.925 99.3456" stroke="white" stroke-width="5" stroke-linejoin="round"/>
<path d="M195.549 158.462C195.549 158.462 179.825 153.757 174.742 156.122C169.181 158.706 158.885 166.964 158.283 168.353C157.682 169.743 157.866 171.192 157.975 172.685C158.084 174.178 176.923 174.152 179.155 174.049C181.387 173.945 193.621 174.993 195.686 173.216C203.273 166.703 195.549 158.462 195.549 158.462Z" fill="#D0BCE6"/>
<path d="M225.387 31.8046C225.387 31.8046 221.181 40.1292 228.543 51.3243C228.543 51.3243 218.446 62.7175 202.458 62.6458C181.807 62.5568 190.89 56.6492 190.89 56.6492C190.89 56.6492 194.045 52.6477 193.426 45.4828L225.387 31.8046Z" fill="#B07AEA"/>
<path d="M222.159 36.7503C221.739 38.3061 221.677 45.0232 218.174 46.912C213.638 49.3577 200.291 53.1927 190.198 50.305C188.904 49.9347 182.484 34.9734 182.905 29.8638C183.325 24.7543 183.466 6.64688 197.759 2.09133C212.051 -2.46423 229.163 0.0819449 233.93 13.4214C235.879 18.8754 234.271 23.7553 231.688 27.6334C231.688 27.6334 233.34 29.9815 230.691 32.321C227.811 34.8729 222.159 36.7503 222.159 36.7503Z" fill="#D0BCE6"/>
<path d="M231.695 27.6309C228.333 24.6197 223.703 29.9732 223.703 29.9732L223.638 30.2603C222.371 29.7178 221.293 28.9358 220.5 27.9839C218.565 25.6645 218.406 23.0839 218.663 13.8035C218.663 13.8035 199.893 15.3736 186.281 12.7815C188.372 8.15135 191.864 3.96323 197.766 2.08302C212.066 -2.47253 229.173 0.0736403 233.938 13.4131C235.887 18.8642 234.278 23.7528 231.695 27.6309Z" fill="#4D3566"/>
<path d="M206.809 58.2424C209.425 57.2807 220.268 54.1518 227.931 48.0031C227.931 48.0031 235.579 53.8791 235.648 54.924C235.716 55.9689 219.449 64.7068 214.87 65.0771L206.809 58.2424Z" fill="#D0BCE6"/>
<path d="M190.908 53.5232C191.632 54.5594 193.466 57.0051 198.701 58.116C198.701 58.116 194.868 63.0764 191.314 64.6322C191.314 64.6322 185.517 62.6228 183.941 60.0049C182.897 58.2797 190.908 53.5232 190.908 53.5232Z" fill="#D0BCE6"/>
<path d="M198.701 58.1161L202.461 62.6314L206.809 58.2424L210.794 61.6181C210.794 61.6181 205.237 63.7165 194.853 62.2123L198.701 58.1161Z" fill="#5D5466"/>
<path d="M0 173.388H197.371C199.293 173.388 201.136 173.993 202.495 175.07C203.854 176.147 204.617 177.607 204.617 179.13V180.651C204.617 182.174 203.854 183.634 202.495 184.71C201.136 185.787 199.293 186.392 197.371 186.392H0.362295" fill="white"/>
<path d="M0 173.388H197.371C199.293 173.388 201.136 173.993 202.495 175.07C203.854 176.147 204.617 177.607 204.617 179.13V180.651C204.617 182.174 203.854 183.634 202.495 184.71C201.136 185.787 199.293 186.392 197.371 186.392H0.362295" stroke="#5D5466" stroke-width="6" stroke-miterlimit="10"/>
<path d="M155.772 387V186.599H171.536V386.994" fill="white"/>
<path d="M155.772 190.583V186.599H171.536V200.449L155.772 190.583Z" fill="#D0BCE6"/>
<path d="M155.772 386.71V186.599H171.536V386.704" stroke="#5D5466" stroke-width="6" stroke-miterlimit="10"/>
<path d="M162.247 173.388H83.3279C82.0919 173.388 80.8812 173.111 79.8355 172.589C78.7899 172.067 77.9521 171.321 77.4189 170.438L51.9097 128.206C51.6646 127.801 51.5533 127.353 51.5861 126.904C51.619 126.455 51.7949 126.02 52.0974 125.64C52.4 125.26 52.8193 124.947 53.3161 124.73C53.813 124.513 54.3711 124.399 54.9384 124.4H133.857C135.093 124.4 136.304 124.677 137.35 125.199C138.395 125.721 139.233 126.467 139.766 127.351L165.275 169.588C165.519 169.993 165.629 170.44 165.595 170.888C165.562 171.336 165.385 171.77 165.083 172.15C164.781 172.529 164.362 172.842 163.866 173.058C163.37 173.275 162.813 173.388 162.247 173.388Z" fill="white" stroke="#4D3566" stroke-width="5" stroke-miterlimit="10"/>
<path d="M162.12 172.754H84.4728C83.3159 172.721 82.1927 172.437 81.2246 171.934C80.2565 171.431 79.4804 170.728 78.9804 169.901L67.7492 151.285L67.9195 151.05H153.059L153.2 151.282L163.942 169.08C165.569 171.158 164.507 172.754 162.12 172.754Z" fill="#D0BCE6"/>
<path d="M153.975 150.958L139.538 170.931C138.451 172.435 136.151 173.394 133.625 173.394H54.7066C52.2357 173.394 50.6127 171.689 51.6778 170.214L65.6044 150.958H153.975Z" fill="white" stroke="#4D3566" stroke-width="5" stroke-linejoin="round"/>
</svg>
