<svg width="197" height="40" viewBox="0 0 197 40" fill="none" xmlns="http://www.w3.org/2000/svg">
<path d="M49.6451 5.496C50.1251 6.328 50.3651 7.336 50.3651 8.52C49.2451 8.52 48.3651 8.696 47.7251 9.048C47.1171 9.368 46.7011 9.944 46.4771 10.776L40.4291 32.76C39.7891 35.032 38.9731 36.696 37.9811 37.752C37.0211 38.808 35.7571 39.336 34.1891 39.336H31.5011L27.0851 23.88L25.2131 16.824L23.6771 23.928L21.2291 32.76C20.5891 35.096 19.8211 36.776 18.9251 37.8C18.0291 38.824 16.7971 39.336 15.2291 39.336H12.6371L4.14106 10.776C3.88506 9.912 3.53306 9.32 3.08506 9C2.63706 8.68 1.88506 8.52 0.829062 8.52C0.829062 7.304 1.06906 6.296 1.54906 5.496H14.5091C15.0531 6.584 15.3251 7.592 15.3251 8.52C14.2051 8.52 13.4371 8.712 13.0211 9.096C12.6051 9.48 12.3971 9.992 12.3971 10.632L16.5251 26.136L17.2931 30.072L21.8531 12.552C22.1091 11.208 22.5251 10.088 23.1011 9.192C23.7091 8.296 24.4771 7.848 25.4051 7.848H30.4451L35.1971 26.136L36.2531 30.264L37.3571 26.04L40.9091 12.216C41.0051 11.864 41.0531 11.544 41.0531 11.256C41.0531 10.424 40.7491 9.768 40.1411 9.288C39.5331 8.776 38.7171 8.52 37.6931 8.52C37.6931 7.304 37.9171 6.296 38.3651 5.496H49.6451ZM61.7021 5.064C61.7021 6.44 61.2701 7.544 60.4061 8.376C59.5741 9.176 58.4541 9.576 57.0461 9.576C55.6701 9.576 54.5661 9.176 53.7341 8.376C52.9341 7.544 52.5341 6.44 52.5341 5.064C52.5341 3.72 52.9501 2.632 53.7821 1.8C54.6461 0.967998 55.7661 0.551997 57.1421 0.551997C58.5181 0.551997 59.6221 0.967998 60.4541 1.8C61.2861 2.632 61.7021 3.72 61.7021 5.064ZM60.7901 33.816C60.7901 34.744 61.0141 35.416 61.4621 35.832C61.9421 36.216 62.6621 36.408 63.6221 36.408C63.6221 37.4 63.2541 38.264 62.5181 39H51.6701C50.9341 38.264 50.5661 37.4 50.5661 36.408C51.5261 36.408 52.2141 36.216 52.6301 35.832C53.0781 35.416 53.3021 34.728 53.3021 33.768V19.848C53.3021 18.952 53.0781 18.312 52.6301 17.928C52.2141 17.544 51.3821 17.352 50.1341 17.352V15.24C50.9021 14.76 52.1981 14.264 54.0221 13.752C55.8781 13.208 57.4461 12.936 58.7261 12.936C59.4621 12.936 59.9901 13.112 60.3101 13.464C60.6301 13.784 60.7901 14.344 60.7901 15.144V33.816ZM75.4552 39.48C73.8872 39.48 72.3192 39.256 70.7512 38.808C69.2152 38.328 67.9512 37.656 66.9592 36.792C65.9672 35.928 65.4712 34.904 65.4712 33.72C65.4712 32.6 65.7912 31.704 66.4312 31.032C67.0712 30.328 67.8872 29.976 68.8792 29.976C69.7752 29.976 70.5272 30.264 71.1352 30.84C71.7752 31.416 72.0952 32.168 72.0952 33.096C72.0952 33.512 72.0312 33.88 71.9032 34.2C71.8072 34.488 71.6152 34.808 71.3272 35.16C71.5832 35.416 72.0632 35.624 72.7672 35.784C73.4712 35.912 74.2232 35.976 75.0232 35.976C76.1112 35.976 76.9592 35.784 77.5672 35.4C78.2072 34.984 78.5272 34.456 78.5272 33.816C78.5272 32.952 78.1272 32.216 77.3272 31.608C76.5272 30.968 75.2472 30.184 73.4872 29.256C71.6952 28.296 70.3352 27.512 69.4072 26.904C68.4792 26.264 67.6472 25.416 66.9112 24.36C66.2072 23.272 65.8552 21.944 65.8552 20.376C65.8552 18.2 66.7512 16.44 68.5432 15.096C70.3352 13.752 72.8152 13.08 75.9832 13.08C79.0872 13.08 81.3912 13.64 82.8952 14.76C84.4312 15.848 85.1992 17.16 85.1992 18.696C85.1992 19.656 84.8792 20.44 84.2392 21.048C83.6312 21.656 82.8792 21.96 81.9832 21.96C81.1512 21.96 80.4312 21.72 79.8232 21.24C79.2472 20.728 78.9592 20.072 78.9592 19.272C78.9592 18.856 79.0232 18.44 79.1512 18.024C79.2792 17.576 79.4552 17.208 79.6792 16.92C79.0392 16.408 78.0792 16.152 76.7992 16.152C75.7752 16.152 74.9752 16.392 74.3992 16.872C73.8232 17.352 73.5352 17.96 73.5352 18.696C73.5352 19.688 73.9352 20.504 74.7352 21.144C75.5352 21.784 76.8152 22.552 78.5752 23.448C80.2392 24.312 81.5512 25.064 82.5112 25.704C83.4712 26.344 84.3032 27.192 85.0072 28.248C85.7112 29.304 86.0632 30.6 86.0632 32.136C86.0632 34.632 85.0392 36.488 82.9912 37.704C80.9752 38.888 78.4632 39.48 75.4552 39.48ZM115.132 37.704C113.98 38.76 112.22 39.288 109.852 39.288C106.62 39.288 105.004 38.28 105.004 36.264V20.808C105.004 19.784 104.716 19 104.14 18.456C103.596 17.88 102.844 17.592 101.884 17.592C101.244 17.592 100.572 17.8 99.8684 18.216C99.1964 18.632 98.7004 19.16 98.3804 19.8V33.816C98.3804 34.744 98.5724 35.416 98.9564 35.832C99.3724 36.216 100.06 36.408 101.02 36.408C101.02 37.4 100.652 38.264 99.9164 39H89.3084C88.5724 38.264 88.2044 37.4 88.2044 36.408C89.1644 36.408 89.8364 36.216 90.2204 35.832C90.6364 35.416 90.8444 34.744 90.8444 33.816V7.8C90.8444 7 90.6204 6.408 90.1724 6.024C89.7244 5.64 88.8764 5.448 87.6284 5.448V3.48C88.7804 2.872 90.2364 2.344 91.9964 1.896C93.7884 1.416 95.2284 1.176 96.3164 1.176C97.0524 1.176 97.5804 1.352 97.9004 1.704C98.2204 2.024 98.3804 2.584 98.3804 3.384V12.84L98.2844 16.68C99.1484 15.56 100.236 14.648 101.548 13.944C102.892 13.24 104.364 12.888 105.964 12.888C108.204 12.888 109.9 13.496 111.052 14.712C112.204 15.896 112.78 17.656 112.78 19.992V33.432C112.78 34.232 112.972 34.872 113.356 35.352C113.772 35.832 114.348 36.152 115.084 36.312L115.132 37.704Z" fill="#4D3566"/>
<path d="M127.18 39V37.992C128.908 37.992 129.916 37.672 130.204 37.032V12.888C129.916 12.248 128.908 11.928 127.18 11.928V10.92H137.644V11.928C135.916 11.928 134.908 12.248 134.62 12.888V37.368H145.564C146.364 37.016 147.084 36.008 147.724 34.344H148.684L147.532 39H127.18ZM150.418 39V37.992C152.146 37.992 153.154 37.672 153.442 37.032V20.808C151.458 20.648 150.45 20.568 150.418 20.568V19.464C151.026 19.464 152.21 19.128 153.97 18.456C155.762 17.752 157.026 17.4 157.762 17.4V37.032C158.05 37.672 159.058 37.992 160.786 37.992V39H150.418ZM155.458 14.328C154.754 14.328 154.13 14.072 153.586 13.56C153.074 13.016 152.818 12.328 152.818 11.496C152.818 10.76 153.042 10.12 153.49 9.576C153.97 9.032 154.578 8.76 155.314 8.76C156.018 8.76 156.642 9.032 157.186 9.576C157.73 10.12 158.002 10.808 158.002 11.64C158.002 12.376 157.762 13.016 157.282 13.56C156.802 14.072 156.194 14.328 155.458 14.328ZM171.709 38.04C172.605 38.04 173.581 37.752 174.637 37.176C175.725 36.6 176.269 35.736 176.269 34.584C176.269 32.728 174.365 31.128 170.557 29.784C169.629 29.464 168.861 29.16 168.253 28.872C167.677 28.584 167.037 28.184 166.333 27.672C165.629 27.16 165.101 26.536 164.749 25.8C164.397 25.064 164.221 24.2 164.221 23.208C164.221 21.416 164.877 20.008 166.189 18.984C167.501 17.928 169.085 17.4 170.941 17.4C172.029 17.4 173.133 17.64 174.253 18.12C175.405 18.6 176.061 18.84 176.221 18.84C176.605 18.84 176.797 18.52 176.797 17.88H177.901V23.64H176.845C176.653 22.296 175.997 21.16 174.877 20.232C173.789 19.304 172.525 18.84 171.085 18.84C170.061 18.84 169.197 19.08 168.493 19.56C167.821 20.04 167.485 20.696 167.485 21.528C167.485 22.008 167.581 22.456 167.773 22.872C167.965 23.256 168.157 23.576 168.349 23.832C168.541 24.056 168.893 24.312 169.405 24.6C169.949 24.888 170.349 25.096 170.605 25.224C170.893 25.32 171.389 25.496 172.093 25.752C172.829 26.008 173.325 26.184 173.581 26.28C175.245 26.92 176.669 27.832 177.853 29.016C179.037 30.168 179.629 31.512 179.629 33.048C179.629 35 178.845 36.568 177.277 37.752C175.709 38.904 173.725 39.48 171.325 39.48C170.173 39.48 169.053 39.208 167.965 38.664C166.877 38.12 166.269 37.848 166.141 37.848C165.949 37.848 165.725 37.976 165.469 38.232C165.213 38.488 165.085 38.744 165.085 39H163.933V32.232H164.989C165.213 33.864 165.965 35.24 167.245 36.36C168.557 37.48 170.045 38.04 171.709 38.04ZM189.867 10.92V17.88H193.995V19.32H189.867V34.584C189.867 35.576 190.043 36.344 190.395 36.888C190.747 37.4 191.403 37.656 192.363 37.656C192.939 37.656 193.515 37.384 194.091 36.84C194.699 36.264 195.115 35.48 195.339 34.488L196.491 35.064C195.819 38.008 193.899 39.48 190.731 39.48C187.083 39.48 185.259 37.72 185.259 34.2V19.32H181.899V17.88C183.403 17.88 184.763 17.256 185.979 16.008C187.195 14.76 187.803 13.064 187.803 10.92H189.867Z" fill="#9582AB"/>
</svg>
